<svg width="32" height="32" viewBox="0 0 32 32" fill="none" xmlns="http://www.w3.org/2000/svg">
<path d="M6.6665 22.6667H5.33317C4.62593 22.6667 3.94765 22.3857 3.44755 21.8856C2.94746 21.3855 2.6665 20.7072 2.6665 20V6.66667C2.6665 5.95942 2.94746 5.28115 3.44755 4.78105C3.94765 4.28095 4.62593 4 5.33317 4H26.6665C27.3737 4 28.052 4.28095 28.5521 4.78105C29.0522 5.28115 29.3332 5.95942 29.3332 6.66667V20C29.3332 20.7072 29.0522 21.3855 28.5521 21.8856C28.052 22.3857 27.3737 22.6667 26.6665 22.6667H25.3332M15.9998 20L22.6665 28H9.33317L15.9998 20Z" stroke="#1E1E1E" stroke-width="4" stroke-linecap="round" stroke-linejoin="round"/>
</svg>
