<svg width="20" height="20" viewBox="0 0 20 20" fill="none" xmlns="http://www.w3.org/2000/svg">
<g clip-path="url(#clip0_99_236)">
<path d="M14.5862 0.87915H5.41381C2.42858 0.87915 0 3.13549 0 5.90898V14.4309C0 17.2043 2.42858 19.4606 5.41381 19.4606H14.5863C17.5714 19.4606 20 17.2043 20 14.4309V5.90898C20 3.13549 17.5714 0.87915 14.5862 0.87915V0.87915ZM9.99998 15.2506C6.98454 15.2506 4.53139 12.9714 4.53139 10.1699C4.53139 7.36831 6.98454 5.08915 9.99998 5.08915C13.0154 5.08915 15.4686 7.36831 15.4686 10.1699C15.4686 12.9714 13.0154 15.2506 9.99998 15.2506ZM15.5993 6.28735C14.7082 6.28735 13.9834 5.61397 13.9834 4.78606C13.9834 3.95815 14.7082 3.28462 15.5993 3.28462C16.4904 3.28462 17.2154 3.95815 17.2154 4.78606C17.2154 5.61397 16.4904 6.28735 15.5993 6.28735Z" fill="#F3F3F3"/>
<path d="M9.99972 6.17853C7.63095 6.17853 5.70361 7.96902 5.70361 10.1699C5.70361 12.3707 7.63095 14.1613 9.99972 14.1613C12.3686 14.1613 14.2958 12.3707 14.2958 10.1699C14.2958 7.96902 12.3686 6.17853 9.99972 6.17853Z" fill="#F3F3F3"/>
<path d="M15.5992 4.37408C15.3547 4.37408 15.1558 4.55895 15.1558 4.78605C15.1558 5.01316 15.3547 5.19802 15.5992 5.19802C15.8438 5.19802 16.0428 5.0133 16.0428 4.78605C16.0428 4.5588 15.8438 4.37408 15.5992 4.37408Z" fill="#F3F3F3"/>
</g>
<defs>
<clipPath id="clip0_99_236">
<rect width="20" height="18.5815" fill="white" transform="translate(0 0.87915)"/>
</clipPath>
</defs>
</svg>
