<svg width="20" height="20" viewBox="0 0 20 20" fill="none" xmlns="http://www.w3.org/2000/svg">
<g clip-path="url(#clip0_99_225)">
<path d="M20 4.40846C19.2563 4.71157 18.4637 4.91248 17.6375 5.01004C18.4875 4.53853 19.1363 3.7976 19.4412 2.90452C18.6488 3.34351 17.7738 3.65359 16.8412 3.82663C16.0887 3.08221 15.0162 2.62115 13.8462 2.62115C11.5763 2.62115 9.74875 4.33297 9.74875 6.43152C9.74875 6.73347 9.77625 7.02381 9.84375 7.30021C6.435 7.14575 3.41875 5.62787 1.3925 3.31564C1.03875 3.88586 0.83125 4.53853 0.83125 5.24114C0.83125 6.56043 1.5625 7.7299 2.6525 8.40697C1.99375 8.39535 1.3475 8.21767 0.8 7.93778C0.8 7.9494 0.8 7.96449 0.8 7.97959C0.8 9.83077 2.22125 11.3684 4.085 11.7226C3.75125 11.8074 3.3875 11.848 3.01 11.848C2.7475 11.848 2.4825 11.8341 2.23375 11.783C2.765 13.2916 4.2725 14.4007 6.065 14.4367C4.67 15.4505 2.89875 16.0614 0.98125 16.0614C0.645 16.0614 0.3225 16.0474 0 16.0091C1.81625 17.0973 3.96875 17.7186 6.29 17.7186C13.835 17.7186 17.96 11.9119 17.96 6.87864C17.96 6.71024 17.9538 6.54766 17.945 6.38623C18.7588 5.84969 19.4425 5.17959 20 4.40846Z" fill="#F3F3F3"/>
</g>
<defs>
<clipPath id="clip0_99_225">
<rect width="20" height="18.5815" fill="white" transform="translate(0 0.87915)"/>
</clipPath>
</defs>
</svg>
