<svg width="20" height="20" viewBox="0 0 20 20" fill="none" xmlns="http://www.w3.org/2000/svg">
<g clip-path="url(#clip0_99_232)">
<path d="M10.0025 0.87915H9.9975C4.48375 0.87915 0 5.04605 0 10.1699C0 12.2022 0.705 14.0859 1.90375 15.6154L0.6575 19.0669L4.50125 17.9253C6.0825 18.8985 7.96875 19.4606 10.0025 19.4606C15.5162 19.4606 20 15.2926 20 10.1699C20 5.04721 15.5162 0.87915 10.0025 0.87915ZM15.8212 13.9988C15.58 14.6318 14.6225 15.1567 13.8587 15.31C13.3363 15.4134 12.6537 15.4958 10.3562 14.6109C7.4175 13.4797 5.525 10.7053 5.3775 10.5253C5.23625 10.3453 4.19 9.05617 4.19 7.72294C4.19 6.38972 4.91875 5.74053 5.2125 5.46181C5.45375 5.23303 5.8525 5.1285 6.235 5.1285C6.35875 5.1285 6.47 5.13431 6.57 5.13896C6.86375 5.15057 7.01125 5.16683 7.205 5.59769C7.44625 6.13771 8.03375 7.47093 8.10375 7.60797C8.175 7.74501 8.24625 7.93083 8.14625 8.11083C8.0525 8.29665 7.97 8.3791 7.8225 8.53705C7.675 8.69499 7.535 8.81577 7.3875 8.98532C7.2525 9.13282 7.1 9.29076 7.27 9.56367C7.44 9.83078 8.0275 10.7215 8.8925 11.4369C10.0087 12.3602 10.9137 12.6552 11.2375 12.7806C11.4787 12.8735 11.7662 12.8514 11.9425 12.6772C12.1663 12.4531 12.4425 12.0815 12.7238 11.7156C12.9237 11.4532 13.1763 11.4207 13.4412 11.5136C13.7113 11.6007 15.14 12.2568 15.4338 12.3927C15.7275 12.5297 15.9212 12.5948 15.9925 12.7098C16.0625 12.8247 16.0625 13.3647 15.8212 13.9988Z" fill="#F3F3F3"/>
</g>
<defs>
<clipPath id="clip0_99_232">
<rect width="20" height="18.5815" fill="white" transform="translate(0 0.87915)"/>
</clipPath>
</defs>
</svg>
